PathFileType	4	(X/Y/Z)	E:\Qualisys_Data\Carbon_Farble_Plate\Data\Amateur_Runner\S1\T3\S1T3V21_c3d.trc
DataRate	CameraRate	NumFrames	NumMarkers	Units	OrigDataRate	OrigDataStartFrame	OrigNumFrames
200.000000	200.000000	4	39	mm	200.000000	149	298
Frame#	Time	LSHO			RSHO			LICST			RICST			LASIS			LHEEL			RASIS			LTROC			RTROC			SACR			LTH1			LSK4			LTH2			LTH3			RHM5			LSK2			LTH4			RTH1			LTOE			RTH2			RTH3			RTH4			LLEP			RLEP			LSK1			LSK3			RSK1			LHM5			RSK2			LFT1			RSK3			RSK4			LLME			RLME			RTOE			RHEEL			RFT1			RFT2			LFT2			
		X1	Y1	Z1	X2	Y2	Z2	X3	Y3	Z3	X4	Y4	Z4	X5	Y5	Z5	X6	Y6	Z6	X7	Y7	Z7	X8	Y8	Z8	X9	Y9	Z9	X10	Y10	Z10	X11	Y11	Z11	X12	Y12	Z12	X13	Y13	Z13	X14	Y14	Z14	X15	Y15	Z15	X16	Y16	Z16	X17	Y17	Z17	X18	Y18	Z18	X19	Y19	Z19	X20	Y20	Z20	X21	Y21	Z21	X22	Y22	Z22	X23	Y23	Z23	X24	Y24	Z24	X25	Y25	Z25	X26	Y26	Z26	X27	Y27	Z27	X28	Y28	Z28	X29	Y29	Z29	X30	Y30	Z30	X31	Y31	Z31	X32	Y32	Z32	X33	Y33	Z33	X34	Y34	Z34	X35	Y35	Z35	X36	Y36	Z36	X37	Y37	Z37	X38	Y38	Z38	X39	Y39	Z39	

150	0.745	145.3781127929688	1519.819702148438	-526.711181640625	52.01117706298828	1505.56005859375	-220.0603942871094	85.69483947753906	1039.338500976562	-525.9510498046875	72.50160217285156	1065.416137695312	-229.7439880371094	127.9942474365234	1000.127868652344	-498.3085021972656	-469.3168334960938	490.5396118164062	-415.0993041992188	111.4408721923828	1018.992980957031	-235.4297332763672	9.292409896850586	923.6245727539062	-546.8198852539062	13.63938903808594	920.4202880859376	-206.4408721923828	-40.51811981201172	1066.404174804688	-378.567138671875	104.1612930297852	750.0361938476562	-504.5841369628906	-326.8129577636719	509.7979125976562	-445.1641845703125	27.77257347106934	757.7940063476562	-537.3534545898438	84.5785140991211	648.4884033203125	-490.8131713867188	433.1383666992188	131.0708312988281	-232.5464630126953	-233.0120086669922	524.8034057617188	-485.4052124023438	4.459140777587891	662.0112915039062	-515.3394165039062	174.5088806152344	825.496337890625	-221.9173889160156	-450.0545349121094	240.5710906982422	-391.2375183105469	102.7608337402344	797.1421508789062	-194.0936126708984	210.6557769775391	730.34130859375	-224.1652374267578	134.1530609130859	702.3359985351562	-207.9083557128906	-16.45118141174316	513.6967163085938	-481.7351989746094	229.1957244873047	564.6618041992188	-252.4266967773438	-219.6770782470703	441.6966857910156	-475.07763671875	-320.1522216796875	432.4240112304688	-466.9018859863281	265.1470336914062	376.8533630371094	-230.8393249511719	-488.1049499511719	298.8314208984375	-453.7256469726562	185.5653228759766	361.7066040039062	-239.1778259277344	-489.4337463378906	483.4561767578125	-380.4120788574219	286.4919128417969	279.2854309082031	-244.225830078125	209.2384948730469	265.5149230957031	-262.8218688964844	-440.3919067382812	436.4494934082031	-458.887451171875	286.9959716796875	139.207275390625	-243.6295166015625	475.2305603027344	167.9637756347656	-304.1035766601562	240.3961181640625	74.48118591308594	-287.9146728515625	260.6923828125	55.42273330688477	-321.8765869140625	253.8019409179688	50.17248916625977	-268.6608581542969	-500.5570373535156	478.8792114257812	-431.8563232421875
151	0.75	165.2665252685547	1516.707641601562	-525.946533203125	72.83070373535156	1500.769165039062	-218.6427917480469	105.1732788085938	1035.34033203125	-525.7933349609375	90.10365295410156	1061.016723632812	-229.0390319824219	147.5572967529297	996.3567504882812	-497.8736877441406	-440.7290649414062	498.3220520019531	-414.4963684082031	131.324951171875	1015.8056640625	-234.9967803955078	29.62142753601074	918.9282836914062	-546.8963012695312	32.55778121948242	917.4532470703124	-206.9017486572266	-21.0950813293457	1062.139770507812	-379.1255187988281	127.530647277832	746.8021240234375	-505.50927734375	-297.6122436523438	512.9456787109375	-444.9098205566406	50.58758163452148	753.190185546875	-537.4061279296875	110.4937210083008	645.0291748046875	-492.62890625	443.3192443847656	122.9856567382812	-233.1039428710938	-203.4528198242188	525.6823120117188	-485.3153686523438	29.33093452453613	657.0416259765625	-515.7698364257812	194.2354125976562	823.4561157226562	-219.6966705322266	-427.7316284179688	247.3660583496094	-391.8864135742188	121.680534362793	794.1259765625	-195.299560546875	230.6420440673828	728.2305297851562	-222.8977203369141	153.5954437255859	700.1184692382812	-209.0822906494141	11.93912887573242	508.616943359375	-483.2760925292969	246.6006622314453	559.8920288085938	-252.5140991210938	-192.7025299072266	441.8319396972656	-475.1238708496094	-293.5755615234375	434.8615417480469	-466.6815795898438	279.5300903320312	371.2004699707031	-231.3707122802734	-463.6517333984375	307.0549011230469	-454.2234802246094	199.728515625	357.4259033203125	-240.4555053710938	-460.5865783691406	491.0956420898438	-379.7008361816406	299.3170471191406	273.2711181640625	-244.9512481689453	221.7816925048828	260.8294372558594	-263.1741638183594	-412.6177978515625	443.2604064941406	-458.8523254394531	297.219970703125	133.4513549804688	-244.375	485.6831665039062	159.9693450927734	-304.6427001953125	249.7408752441406	69.45307159423828	-289.0967712402344	269.6205139160156	50.29292678833008	-323.031494140625	262.7605895996094	45.09572601318359	-270.0070495605469	-471.9039306640625	486.8223266601562	-431.8197937011719
152	0.755	184.6963043212891	1512.744262695312	-524.968994140625	93.54591369628906	1495.545166015625	-217.3973999023438	124.7233657836914	1030.62646484375	-525.429443359375	108.4830551147461	1057.0078125	-229.3640899658203	167.2769470214844	992.078369140625	-497.5197143554688	-411.0196228027344	505.0130920410156	-414.0277404785156	150.6888732910156	1012.363342285156	-233.8204956054688	50.04061889648438	913.8844604492188	-546.9965209960938	51.47871780395508	914.10693359375	-207.1768493652344	-1.559698104858398	1057.672241210938	-379.0354919433594	150.5541229248047	743.4277954101562	-506.5948791503906	-267.7642211914062	515.5090942382812	-444.4744262695312	73.40453338623047	748.7353515625	-537.9146728515625	135.5399932861328	640.8385620117188	-493.4838256835938	452.4688415527344	114.0396881103516	-234.2691192626953	-173.3073577880859	526.1427612304688	-484.8641967773438	54.17728424072266	651.7893676757812	-515.9420166015625	214.0724945068359	821.2203979492188	-217.6662750244141	-404.3253479003906	253.7946166992188	-392.7180786132812	140.869873046875	791.446533203125	-195.6105651855469	250.6446380615234	725.8927001953125	-222.6258392333984	173.0591583251953	697.679931640625	-210.5786285400391	40.55887985229492	503.7044067382812	-484.134033203125	263.9830627441406	555.1542358398438	-252.9918823242188	-164.7889709472656	442.37451171875	-475.9837341308594	-265.7270812988281	438.7570495605469	-467.682861328125	293.7383117675781	365.0309448242188	-231.7080078125	-438.840576171875	314.7727661132812	-455.0846252441406	213.5693206787109	352.9453735351562	-240.7447814941406	-431.0679931640625	498.6469421386719	-379.3202514648438	311.4752197265625	266.8834228515625	-245.3844451904297	233.4913940429688	256.1275024414062	-264.3462219238281	-384.9018859863281	449.5552062988281	-458.4013366699219	307.0237121582031	127.8234405517578	-245.4481506347656	495.9792785644531	149.4911651611328	-305.7919311523438	257.6781005859375	70.5029067993164	-290.5087890625	276.3500366210938	48.35676956176758	-324.3887634277344	268.1040344238281	46.99893951416016	-271.19091796875	-442.1094970703125	494.5768127441406	-431.3198852539062
153	0.76	204.1551666259766	1508.955322265625	-524.1212768554688	114.5099334716797	1490.250854492188	-215.9789886474609	144.0891418457031	1026.536987304688	-525.7022705078125	128.0324096679688	1053.587036132812	-228.9878692626953	186.3178405761719	987.4218139648438	-496.9590148925781	-380.9905700683594	511.3326416015625	-413.6314086914062	170.0028686523438	1008.766418457031	-233.56494140625	70.43541717529297	908.6859130859376	-546.99853515625	70.40123748779297	910.3155517578124	-207.4183044433594	17.84380340576172	1053.0185546875	-379.4934692382812	173.9075164794922	739.9042358398438	-508.1423950195312	-237.51416015625	518.0540771484375	-444.3401489257812	95.81166839599608	743.3928833007812	-538.1983032226562	161.1148986816406	636.860595703125	-495.7139282226562	460.7544860839844	103.3000869750977	-235.4305725097656	-142.8218688964844	526.1866455078125	-484.5332336425781	78.60572052001953	646.0877075195312	-515.8590087890625	233.5570373535156	818.1591796875	-216.1051025390625	-379.6831359863281	260.0828857421875	-393.7808837890625	159.916748046875	787.5914306640625	-195.9451599121094	269.0533447265625	722.8690185546875	-223.0570831298828	192.2881469726562	694.7919311523438	-210.4920043945312	69.5079116821289	498.7366943359375	-485.32275390625	281.1997680664062	549.9425659179688	-252.7459716796875	-136.4875030517578	442.2413940429688	-476.9127807617188	-237.4508819580078	441.0809631347656	-468.0912780761719	307.3486022949219	359.0848083496094	-232.0238952636719	-412.6192932128906	321.6201782226562	-455.572265625	226.9900512695312	348.2743530273438	-241.1327209472656	-401.0076293945312	505.2459106445312	-379.1043701171875	323.0826721191406	260.6163940429688	-245.8224487304688	245.1264953613281	250.8631896972656	-264.6842956542969	-356.0419921875	455.2992858886719	-458.3516235351562	315.7575073242188	123.0577011108398	-246.4570007324219	506.2208251953125	135.4312591552734	-307.4010620117188	263.8175048828125	75.88417053222656	-291.3937377929688	280.1748046875	50.80208969116211	-324.4284057617188	272.3407592773438	49.33065795898438	-271.4492492675781	-411.2937316894531	502.4666137695312	-433.3773193359375
